HIERARCHY
ROOT Hips
{
	OFFSET -0.001795 -0.223333 0.028219
	CHANNELS 6 Xposition Yposition Zposition Zrotation Yrotation Xrotation
	JOINT LeftUpLeg
	{
		OFFSET 0.069520 -0.091406 -0.006815
		CHANNELS 3 Zrotation Yrotation Xrotation
		JOINT LeftLeg
		{
			OFFSET 0.034277 -0.375199 -0.004496
			CHANNELS 3 Zrotation Yrotation Xrotation
			JOINT LeftFoot
			{
				OFFSET -0.013596 -0.397961 -0.043693
				CHANNELS 3 Zrotation Yrotation Xrotation
				JOINT LeftToe
				{
					OFFSET 0.026358 -0.055791 0.119288
					CHANNELS 3 Zrotation Yrotation Xrotation
					End Site
					{
						OFFSET 0.000000 0.000000 0.000000
					}
				}
			}
		}
	}
	JOINT RightUpLeg
	{
		OFFSET -0.067670 -0.090522 -0.004320
		CHANNELS 3 Zrotation Yrotation Xrotation
		JOINT RightLeg
		{
			OFFSET -0.038290 -0.382569 -0.008850
			CHANNELS 3 Zrotation Yrotation Xrotation
			JOINT RightFoot
			{
				OFFSET 0.015774 -0.398415 -0.042312
				CHANNELS 3 Zrotation Yrotation Xrotation
				JOINT RightToe
				{
					OFFSET -0.025372 -0.048144 0.123348
					CHANNELS 3 Zrotation Yrotation Xrotation
					End Site
					{
						OFFSET 0.000000 0.000000 0.000000
					}
				}
			}
		}
	}
	JOINT Spine
	{
		OFFSET -0.002533 0.108963 -0.026696
		CHANNELS 3 Zrotation Yrotation Xrotation
		JOINT Spine1
		{
			OFFSET 0.005487 0.135180 0.001092
			CHANNELS 3 Zrotation Yrotation Xrotation
			JOINT Spine2
			{
				OFFSET 0.001457 0.052922 0.025425
				CHANNELS 3 Zrotation Yrotation Xrotation
				JOINT Neck
				{
					OFFSET -0.002778 0.213870 -0.042857
					CHANNELS 3 Zrotation Yrotation Xrotation
					JOINT Head
					{
						OFFSET 0.005152 0.064970 0.051349
						CHANNELS 3 Zrotation Yrotation Xrotation
						End Site
						{
							OFFSET 0.000000 0.000000 0.000000
						}
					}
				}
				JOINT LeftShoulder
				{
					OFFSET 0.078845 0.121749 -0.034090
					CHANNELS 3 Zrotation Yrotation Xrotation
					JOINT LeftArm
					{
						OFFSET 0.090977 0.030469 -0.008868
						CHANNELS 3 Zrotation Yrotation Xrotation
						JOINT LeftForeArm
						{
							OFFSET 0.259612 -0.012772 -0.027456
							CHANNELS 3 Zrotation Yrotation Xrotation
							JOINT LeftHand
							{
								OFFSET 0.249234 0.008986 -0.001171
								CHANNELS 3 Zrotation Yrotation Xrotation
								End Site
								{
									OFFSET 0.000000 0.000000 0.000000
								}
							}
						}
					}
				}
				JOINT RightShoulder
				{
					OFFSET -0.081759 0.118833 -0.038615
					CHANNELS 3 Zrotation Yrotation Xrotation
					JOINT RightArm
					{
						OFFSET -0.096012 0.032551 -0.009143
						CHANNELS 3 Zrotation Yrotation Xrotation
						JOINT RightForeArm
						{
							OFFSET -0.253742 -0.013329 -0.021401
							CHANNELS 3 Zrotation Yrotation Xrotation
							JOINT RightHand
							{
								OFFSET -0.255298 0.007772 -0.005559
								CHANNELS 3 Zrotation Yrotation Xrotation
								End Site
								{
									OFFSET 0.000000 0.000000 0.000000
								}
							}
						}
					}
				}
			}
		}
	}
}
MOTION
Frames: 13
Frame Time: 0.050000
0.000000 0.848784 0.000000 -2.750166 -10.915411 -10.241978 18.806766 1.212814 -3.442709 -10.487499 4.374396 30.394699 7.129119 14.131911 -13.944941 0.000000 0.000000 0.000000 -16.369130 0.265904 -8.900658 5.554366 0.972381 38.529713 -10.054483 -23.685032 10.886755 0.000000 0.000000 0.000000 -1.722146 -0.118212 2.567795 0.831031 -0.343267 -13.058655 -0.921380 5.464370 9.094625 2.541692 -1.856448 -2.424174 0.000000 0.000000 0.000000 -18.390784 -5.293173 1.424953 -1.147683 -18.568457 -0.998342 58.053308 -15.329217 -7.875263 0.000000 0.000000 0.000000 7.817621 7.887928 2.604729 10.467556 9.534713 -0.743949 -29.985583 15.030693 -3.056134 0.000000 0.000000 0.000000
0.004394 0.832711 -0.008304 -2.433872 -12.322776 -11.381975 19.908302 1.595431 -4.722522 -12.246490 6.029193 34.877439 7.418669 14.725591 -17.300306 0.000000 0.000000 0.000000 -17.816664 0.224804 -10.394470 6.750876 1.080562 43.551295 -8.512090 -20.541479 3.779717 0.000000 0.000000 0.000000 -1.252929 -0.074721 0.772779 0.646257 -0.378578 -12.314494 0.176372 6.410563 9.897364 0.769199 -0.574757 -0.049489 0.000000 0.000000 0.000000 -22.634729 -3.958168 0.547531 -1.918827 -21.557810 -1.127554 64.171743 -17.412860 -10.191000 0.000000 0.000000 0.000000 11.699673 9.850879 3.494884 11.127756 4.521331 -0.997763 -35.828305 22.344878 -6.007752 0.000000 0.000000 0.000000
0.008060 0.810398 -0.014836 -1.300731 -11.864648 -13.063041 20.255704 1.725271 -4.973553 -14.236582 7.483798 37.885688 7.644269 14.246065 -24.446252 0.000000 0.000000 0.000000 -20.081457 0.045300 -11.052349 7.901582 0.716517 46.841453 -9.615080 -22.629031 0.384847 0.000000 0.000000 0.000000 -1.779041 -0.098484 0.796691 3.266279 -1.341585 -13.458793 -1.722425 7.619570 10.112871 1.277640 -1.253348 2.748754 0.000000 0.000000 0.000000 -24.990933 -4.994938 0.531423 -1.628267 -23.252892 -1.210721 68.477059 -18.850239 -12.291471 0.000000 0.000000 0.000000 18.216914 11.160435 4.685291 11.201554 0.039719 -1.275953 -43.810703 26.581924 -9.124521 0.000000 0.000000 0.000000
0.010617 0.789263 -0.018586 -0.910585 -11.298361 -14.784981 19.977513 1.799250 -5.922397 -13.657077 7.912435 42.838638 8.002940 14.126554 -30.351343 0.000000 0.000000 0.000000 -22.494988 -0.181548 -11.492133 9.789169 -0.226581 49.452339 -10.314432 -24.186201 -0.738847 0.000000 0.000000 0.000000 -1.650493 -0.075492 -0.283500 4.115308 -1.682761 -13.305478 -1.807902 6.143136 11.246279 -0.243170 0.013206 4.580913 0.000000 0.000000 0.000000 -26.303218 -5.283862 1.124397 -5.289928 -26.791354 -1.050662 78.942673 -19.837899 -15.398086 0.000000 0.000000 0.000000 24.307319 12.530399 5.418527 13.707763 -4.043576 -1.795618 -47.018508 31.077990 -11.974424 0.000000 0.000000 0.000000
0.012702 0.762756 -0.019012 0.707044 -11.384726 -16.760024 19.937678 2.070649 -7.668675 -14.590665 9.992233 49.934235 8.314849 13.783933 -33.671382 0.000000 0.000000 0.000000 -25.695491 -0.422309 -12.546276 11.213883 -0.702123 53.461189 -11.287031 -26.606960 -3.958896 0.000000 0.000000 0.000000 -2.002376 -0.088545 -0.875719 6.046045 -2.571048 -11.413874 -3.289712 7.796639 10.224412 -0.399656 0.121879 4.798998 0.000000 0.000000 0.000000 -26.316045 -6.114824 0.997469 -8.431828 -30.628995 -0.530344 87.860997 -25.939537 -23.635401 0.000000 0.000000 0.000000 30.323018 9.810572 4.468115 18.088545 -6.480354 -2.753149 -48.426221 36.265567 -14.473082 0.000000 0.000000 0.000000
0.014658 0.736860 -0.016815 1.591971 -11.370424 -18.474677 18.810648 2.098951 -9.057713 -12.910314 10.345025 56.744124 8.789668 14.514234 -38.075235 0.000000 0.000000 0.000000 -27.960961 -0.508203 -12.171416 11.836357 -0.826482 56.605711 -11.135857 -26.891734 -10.719836 0.000000 0.000000 0.000000 -1.832524 -0.106047 -0.516017 7.806757 -3.173587 -12.975911 -2.988497 7.256724 11.905954 -1.655961 1.290059 6.467249 0.000000 0.000000 0.000000 -27.003444 -6.279823 1.510584 -10.174759 -34.078089 -0.290224 99.220358 -30.468669 -33.208309 0.000000 0.000000 0.000000 35.194222 9.817322 4.209163 21.152734 -7.547487 -3.424756 -44.989252 36.113919 -13.209436 0.000000 0.000000 0.000000
0.015998 0.710955 -0.013294 1.767962 -11.154594 -20.304300 17.631695 1.967936 -9.261739 -10.348865 9.465745 62.482152 9.274037 15.601065 -44.181580 0.000000 0.000000 0.000000 -28.839689 -0.610975 -11.982380 11.564826 -0.379478 60.960919 -10.983908 -27.308317 -15.715091 0.000000 0.000000 0.000000 -1.038836 -0.020260 -1.938613 10.164231 -4.113049 -12.756772 -3.124505 6.371947 12.922552 -2.273757 1.905859 7.937713 0.000000 0.000000 0.000000 -27.411907 -6.700391 2.196164 -10.342277 -37.184542 -0.291537 105.926120 -36.544683 -43.878848 0.000000 0.000000 0.000000 40.176521 10.757372 4.522550 21.001065 -8.356883 -3.429714 -39.003311 34.277790 -10.562296 0.000000 0.000000 0.000000
0.015280 0.691467 -0.009666 2.208769 -11.311167 -21.159226 15.975209 1.744225 -9.522113 -7.868018 8.362450 66.419166 9.535715 17.211180 -48.560911 0.000000 0.000000 0.000000 -28.866682 -0.772307 -13.286612 10.571015 0.785759 65.502266 -10.908927 -27.809384 -17.962185 0.000000 0.000000 0.000000 -0.778248 -0.044739 -1.003966 13.952574 -5.100086 -15.820791 -3.292530 5.612119 15.050409 -2.614557 2.392551 9.177199 0.000000 0.000000 0.000000 -27.369236 -7.116925 3.144177 -9.039403 -38.767920 -0.775091 112.953847 -38.152386 -50.732200 0.000000 0.000000 0.000000 43.592536 11.254621 4.292634 20.093474 -8.993142 -3.306712 -35.451888 30.628357 -8.331507 0.000000 0.000000 0.000000
0.012415 0.681375 -0.007097 2.024869 -11.304229 -21.106660 15.601575 1.752651 -10.909027 -6.137007 7.381307 69.557630 9.614905 17.797644 -48.817022 0.000000 0.000000 0.000000 -27.997381 -0.857867 -14.357673 9.981803 1.458795 68.222920 -11.016273 -28.689669 -18.590956 0.000000 0.000000 0.000000 -1.087785 -0.067477 -0.875405 18.440737 -6.296616 -16.562167 -3.916981 4.716201 15.552096 -2.149290 1.994686 5.460542 0.000000 0.000000 0.000000 -24.944634 -6.708856 3.302116 -5.193132 -41.809735 -1.745739 113.586576 -38.037034 -50.823294 0.000000 0.000000 0.000000 42.755176 10.840444 3.356338 20.845193 -8.806787 -3.355092 -33.188367 26.212149 -6.456338 0.000000 0.000000 0.000000
0.008009 0.682304 -0.006117 2.191487 -10.316109 -20.394263 15.058963 1.651300 -12.603967 -5.587290 6.594621 70.357278 9.580176 17.502971 -46.807577 0.000000 0.000000 0.000000 -26.864635 -0.945574 -14.922653 8.704819 2.169182 69.144398 -11.399357 -29.916926 -17.150045 0.000000 0.000000 0.000000 -1.092938 -0.093795 0.076339 21.353908 -6.360173 -20.001099 -3.732737 1.733695 17.741686 -2.219005 2.052197 0.340058 0.000000 0.000000 0.000000 -22.105634 -5.684347 3.713108 -1.387729 -43.390692 -2.942020 112.647638 -34.764254 -44.849288 0.000000 0.000000 0.000000 39.927573 9.064311 0.525914 23.185382 -11.113841 -3.993940 -31.733278 21.956228 -5.088363 0.000000 0.000000 0.000000
0.004405 0.697716 -0.007056 1.781962 -8.348182 -18.686517 14.176286 1.415816 -15.012959 -5.033481 4.943252 68.990196 9.388376 16.621155 -41.788160 0.000000 0.000000 0.000000 -25.483800 -1.011945 -14.488271 7.840371 1.729551 66.858111 -12.094297 -31.215144 -13.595046 0.000000 0.000000 0.000000 -1.212715 -0.133114 1.640142 26.444222 -6.518230 -24.487075 -5.138887 1.607385 19.879678 -2.179650 2.093531 -0.560906 0.000000 0.000000 0.000000 -21.276129 -4.951213 2.996334 5.872946 -42.824366 -4.769446 108.791601 -33.341291 -41.811455 0.000000 0.000000 0.000000 37.976477 6.136577 -0.718578 23.659780 -13.926435 -4.823914 -32.320934 16.572128 -3.715181 0.000000 0.000000 0.000000
0.002841 0.721815 -0.009396 2.070595 -5.794573 -15.831332 11.803466 0.824081 -18.653718 -4.350846 3.129297 66.515113 9.023076 15.699216 -33.694744 0.000000 0.000000 0.000000 -25.398105 -1.078622 -13.503155 7.535755 0.458393 61.323858 -12.783582 -32.428072 -10.845934 0.000000 0.000000 0.000000 0.428042 -0.125985 3.078525 27.287886 -7.117038 -23.576787 -4.562247 2.463327 14.331350 0.294477 -0.390015 3.085686 0.000000 0.000000 0.000000 -20.935588 -6.254588 2.397131 10.045165 -39.408763 -5.079374 106.023296 -33.739580 -41.676920 0.000000 0.000000 0.000000 34.945291 3.526893 -1.100712 27.452581 -17.910523 -6.495658 -32.092570 9.087437 -1.618070 0.000000 0.000000 0.000000
0.003766 0.747213 -0.012281 3.685225 -4.246531 -13.876364 9.369478 0.202994 -20.067025 -5.152816 3.082225 62.520328 8.526576 14.829067 -25.982623 0.000000 0.000000 0.000000 -26.122300 -1.245284 -13.672809 6.414267 0.517938 57.425355 -13.344612 -32.155971 -4.883686 0.000000 0.000000 0.000000 4.697380 -0.232348 5.372079 24.934748 -6.440641 -24.130964 -3.745380 4.799589 12.367167 -0.066041 -0.362167 6.087067 0.000000 0.000000 0.000000 -24.583859 -5.770928 0.681565 13.124148 -36.029287 -5.182529 102.870680 -39.073828 -46.474610 0.000000 0.000000 0.000000 33.421136 -0.418567 -2.369463 29.407502 -19.897941 -7.617821 -31.688113 8.250725 -1.229135 0.000000 0.000000 0.000000
